<?xml version="1.0" standalone="no"?>
<!DOCTYPE svg PUBLIC "-//W3C//DTD SVG 20010904//EN"
 "http://www.w3.org/TR/2001/REC-SVG-20010904/DTD/svg10.dtd">
<svg version="1.0" xmlns="http://www.w3.org/2000/svg"
 width="1676.000000pt" height="1676.000000pt" viewBox="0 0 1676.000000 1676.000000"
 preserveAspectRatio="xMidYMid meet">
<metadata>
Created by potrace 1.14, written by Peter Selinger 2001-2017
</metadata>
<g transform="translate(0.000000,1676.000000) scale(0.100000,-0.100000)"
fill="#000000" stroke="none">
<path d="M4230 12340 c0 -1577 3 -1980 13 -1981 6 0 917 -2 2022 -3 1106 -2
2014 -3 2020 -4 5 -1 -49 -59 -120 -128 -72 -69 -254 -246 -405 -394 -151
-147 -311 -302 -355 -345 -44 -43 -212 -206 -374 -364 -162 -157 -329 -320
-371 -361 -43 -41 -202 -196 -355 -345 -152 -148 -318 -310 -369 -359 -113
-110 -672 -653 -741 -721 -159 -155 -454 -442 -688 -669 -146 -143 -265 -262
-263 -265 3 -5 4037 -7 4056 -2 3 0 4 889 2 1973 -1 1085 -2 1978 -2 1983 0 6
0 894 1 1975 0 1081 0 1971 0 1978 -1 9 -415 12 -2036 12 l-2035 0 0 -1980z
m3778 -1 l2 -1696 -1743 0 -1744 0 0 1696 0 1696 1741 0 1741 0 3 -1696z"/>
<path d="M8925 14309 c28 -4 73 -11 100 -14 81 -11 280 -53 425 -91 452 -119
916 -326 1293 -577 51 -33 94 -65 95 -69 2 -4 9 -8 15 -8 7 0 23 -10 37 -23
14 -12 41 -34 60 -47 37 -26 42 -29 78 -59 13 -11 42 -34 65 -53 226 -181 475
-440 667 -693 191 -251 347 -518 480 -820 61 -138 172 -466 195 -575 2 -8 12
-55 24 -105 22 -102 48 -248 57 -321 3 -27 7 -60 9 -74 26 -163 26 -686 0
-840 -2 -14 -7 -47 -10 -75 -5 -44 -25 -164 -41 -250 -10 -56 -44 -191 -69
-280 -14 -49 -28 -97 -30 -105 -49 -187 -233 -593 -370 -817 -85 -138 -203
-313 -225 -333 -3 -3 -27 -34 -55 -70 -101 -131 -157 -193 -329 -365 -168
-167 -278 -262 -441 -383 -60 -44 -121 -89 -135 -100 -49 -36 -237 -151 -350
-214 -303 -168 -598 -288 -954 -389 -77 -21 -149 -41 -160 -43 -12 -2 -75 -15
-141 -29 -66 -14 -140 -28 -165 -32 -25 -3 -72 -10 -105 -15 -33 -5 -87 -12
-120 -15 -33 -3 -71 -8 -85 -10 -30 -5 -224 -17 -340 -20 -47 -2 -88 -3 -91
-4 -4 -1 -6 -892 -6 -1981 l0 -1979 176 4 c207 5 378 13 476 21 39 3 88 7 111
9 34 2 110 10 214 20 62 6 268 33 310 40 14 2 60 9 103 15 43 6 88 13 100 15
44 7 143 25 167 30 14 3 36 7 49 10 456 86 944 222 1389 387 75 28 155 57 177
65 22 8 46 19 52 25 7 6 13 7 13 3 0 -4 11 0 25 9 13 9 29 16 34 16 39 0 667
300 873 416 43 24 80 44 83 44 3 0 18 8 33 19 15 10 101 63 192 117 414 247
838 557 1215 889 254 223 609 582 791 800 70 83 86 102 114 135 46 53 244 310
311 402 343 474 647 1017 873 1560 192 462 349 980 436 1438 21 106 59 336 65
389 4 30 8 62 10 71 2 9 6 41 10 71 3 30 8 70 10 89 4 35 8 75 20 224 4 44 9
100 12 125 2 25 6 1033 8 2239 l4 2192 -3942 -1 c-2169 -1 -3920 -5 -3892 -10z
m7508 -4238 l28 -1 -6 -102 c-6 -107 -13 -208 -20 -280 -14 -140 -17 -165 -20
-188 -2 -14 -6 -46 -9 -72 -6 -46 -13 -99 -21 -147 -2 -13 -7 -45 -11 -70 -4
-25 -8 -55 -10 -66 -3 -11 -7 -36 -10 -55 -3 -19 -12 -66 -20 -105 -8 -38 -17
-86 -20 -105 -12 -75 -108 -444 -159 -615 -120 -397 -246 -714 -446 -1120 -49
-99 -104 -207 -122 -240 -18 -33 -44 -80 -58 -105 -13 -25 -32 -56 -40 -70 -9
-14 -40 -65 -69 -115 -87 -148 -292 -453 -422 -627 -66 -90 -124 -165 -127
-168 -4 -3 -22 -25 -41 -50 -19 -25 -39 -50 -45 -56 -5 -6 -26 -30 -45 -54
-19 -24 -45 -55 -58 -68 -12 -14 -41 -48 -65 -76 -146 -173 -548 -575 -747
-746 -14 -12 -36 -31 -50 -43 -14 -12 -68 -57 -120 -100 -52 -43 -103 -84
-112 -92 -57 -47 -276 -211 -348 -260 -47 -33 -87 -62 -90 -65 -21 -26 -516
-334 -680 -423 -30 -16 -75 -41 -100 -55 -24 -14 -132 -69 -240 -123 -170 -84
-248 -120 -494 -228 -27 -11 -55 -21 -62 -21 -8 0 -14 -5 -14 -10 0 -6 -3 -9
-7 -8 -7 2 -200 -69 -283 -104 -42 -17 -430 -146 -510 -168 -92 -26 -398 -108
-425 -114 -11 -3 -60 -14 -110 -25 -49 -11 -101 -22 -115 -25 -14 -2 -68 -14
-120 -24 -52 -11 -113 -23 -135 -26 -48 -8 -64 -11 -180 -30 -90 -16 -116 -19
-210 -31 -27 -3 -66 -8 -85 -11 -19 -3 -57 -8 -85 -10 -27 -2 -64 -6 -82 -9
-28 -4 -67 -8 -213 -20 -80 -6 -304 -19 -355 -19 l-50 -1 0 1698 0 1697 35 1
c19 1 46 2 60 4 14 1 59 5 100 9 80 7 105 10 215 27 39 6 84 13 100 15 17 2
53 9 80 14 28 5 61 11 75 14 63 11 255 58 350 86 58 17 113 32 124 35 10 2 73
23 140 46 544 186 1060 481 1501 858 113 97 353 334 435 430 30 35 60 69 66
75 14 15 125 156 149 190 11 16 25 33 30 40 6 6 47 65 91 131 382 566 612
1209 678 1890 3 22 5 50 5 62 1 17 8 22 34 25 25 2 3456 1 3570 -1z"/>
<path d="M4199 10332 c-21 -22 -223 -213 -470 -443 -20 -19 -96 -90 -168 -158
-72 -68 -141 -133 -154 -143 -12 -11 -83 -77 -157 -148 -74 -70 -151 -142
-170 -160 -32 -29 -239 -223 -316 -295 -60 -57 -269 -253 -304 -285 -43 -40
-268 -251 -325 -305 -24 -22 -96 -89 -161 -150 -65 -60 -132 -123 -149 -140
-32 -30 -217 -204 -369 -345 -44 -41 -97 -91 -117 -110 -20 -19 -92 -87 -160
-150 -67 -63 -139 -131 -160 -150 -20 -19 -87 -82 -149 -140 -62 -58 -129
-121 -150 -140 -108 -101 -280 -263 -316 -297 -172 -162 -306 -287 -346 -323
-27 -23 -48 -45 -48 -49 0 -3 947 -6 2105 -6 1158 0 2105 -2 2105 -5 0 -2 -27
-29 -59 -60 -146 -135 -278 -258 -316 -295 -36 -34 -187 -175 -299 -279 -17
-16 -92 -86 -167 -157 -75 -71 -145 -137 -157 -147 -12 -10 -81 -75 -154 -144
-73 -69 -145 -136 -159 -149 -25 -23 -252 -236 -329 -309 -37 -35 -246 -230
-310 -290 -19 -18 -95 -89 -168 -158 -73 -69 -141 -132 -151 -141 -15 -14
-176 -165 -326 -306 -48 -46 -265 -248 -304 -284 -14 -13 -87 -81 -161 -151
-74 -70 -151 -142 -170 -160 -47 -43 -277 -258 -310 -290 -14 -14 -89 -83
-165 -155 -178 -167 -271 -253 -369 -346 -43 -41 -91 -86 -107 -100 -16 -14
-29 -28 -29 -31 0 -4 949 -6 2110 -6 l2110 -1 0 3960 c0 2177 -3 3959 -7 3958
-5 0 -15 -8 -24 -17z"/>
</g>
</svg>
