<svg width="569" height="81" viewBox="0 0 569 81" fill="none" xmlns="http://www.w3.org/2000/svg">
<path d="M77.7703 30.3051C77.7703 44.3104 65.9925 55.5512 51.4572 55.5512V80.7977C80.3955 80.7977 103.875 58.1833 103.875 30.3052L77.7703 30.3051ZM251.173 80.5451L266.408 65.3103V80.5451H251.173ZM51.457 5.05859H26.2109V30.3051H51.457V5.05859Z" fill="#C52227"/>
<path d="M77.556 5.05826H54.7964C67.7542 6.64868 77.7707 17.3345 77.7707 30.3047H103.869V5.05826H77.556ZM139.279 20.9292H137.464V13.5754H129.267V20.9292H127.452V5.32471H129.267V11.974H137.464V5.32471H139.279V20.9292ZM143.591 5.32471H145.288C145.288 8.61894 145.446 14.8608 145.149 18.4102H145.234L153.923 5.32471H155.919V20.9292H154.221C154.221 16.8103 154.072 12.6377 154.349 8.51618C154.371 8.19567 154.385 7.95038 154.392 7.77955H154.296L145.597 20.9292H143.591V5.32471ZM164.425 12.9027L158.32 5.32471H160.337L166.357 12.8815V5.32471H168.108V12.8815L174.127 5.32471H176.144L170.039 12.8921L176.369 20.9292H174.277L168.108 13.0202V20.9292H166.357V13.0202L160.177 20.9292H158.085L164.425 12.9027ZM190.404 20.9292H188.59V13.5754H180.393V20.9292H178.578V5.32469H180.393V11.974H188.59V5.32469H190.404V20.9292ZM203.383 20.9292H194.695V5.32469H203.383V6.9257H196.51V11.974H202.988V13.5538H196.51V19.3282H203.383V20.9292ZM211.634 20.9292H209.808V6.92572H204.899V5.32471H216.522V6.92572H211.634L211.634 20.9292ZM228.669 20.9292L226.747 15.9769H220.493L218.582 20.9292H216.746L222.852 5.26048H224.485L230.547 20.9292H228.669ZM226.203 14.3649L223.63 7.14984C223.018 9.65907 222.004 11.9721 221.101 14.3649H226.203ZM241.477 5.32471V6.94688H234.528V20.9292H232.714V5.32468L241.477 5.32471ZM244.113 5.32471H245.81C245.81 8.62045 245.968 14.8597 245.671 18.4102H245.757L254.445 5.32471H256.44V20.9292H254.743C254.743 16.8103 254.593 12.6374 254.872 8.51618C254.893 8.19567 254.907 7.95038 254.914 7.77955H254.818L246.119 20.9292H244.113V5.32471ZM271.8 20.9292H269.985V6.92574H264.926C264.538 10.0291 263.899 16.3435 262.834 19.0398C262.083 20.9424 260.452 21.6405 258.575 20.9182V19.3921C261.059 20.4715 261.481 17.9498 261.852 16.0302C262.508 12.6362 262.967 8.87176 263.41 5.3247H271.8V20.9292ZM276.069 20.9292V5.32471H277.884V11.9634C281.487 11.9634 286.657 11.5076 286.657 16.3715C286.657 19.5935 284.332 20.9292 281.096 20.9292L276.069 20.9292ZM277.884 19.3709C280.519 19.3709 284.789 19.9938 284.789 16.3715C284.789 12.931 280.537 13.5433 277.884 13.5433V19.3709ZM296.594 6.70163C291.098 6.70163 290.11 12.9235 291.641 16.5318C293.163 20.1159 297.147 19.8978 300.308 18.9333V20.5128C297.98 21.3862 294.412 21.4656 292.303 20.1605C288.421 17.7586 288.102 10.6429 291.065 7.33131C293.386 4.7378 297.841 4.5046 300.885 6.00771L300.159 7.54484C299.069 7.04633 297.862 6.70163 296.594 6.70163ZM314.877 20.9292H312.679L305.506 13.0096V20.9292H303.692V5.3247H305.506V12.8815L312.497 5.3247H314.579L307.673 12.9026L314.877 20.9292ZM317.055 5.3247H318.752C318.752 8.62762 318.911 14.854 318.613 18.4102H318.699L327.387 5.3247H329.383V20.9292H327.686C327.686 16.8103 327.536 12.6377 327.813 8.51617C327.835 8.19566 327.849 7.95037 327.856 7.77954H327.76L319.061 20.9292H317.055V5.3247ZM333.662 5.3247H335.359C335.359 8.6193 335.518 14.8604 335.221 18.4102H335.306L343.995 5.3247H345.99V20.9292H344.293C344.293 16.8103 344.143 12.6373 344.421 8.51617C344.443 8.19566 344.457 7.95037 344.464 7.77954H344.368L335.669 20.9292H333.662V5.3247ZM344.058 0.500134C343.851 2.82606 342.32 3.7664 340.035 3.7664C337.624 3.7664 336.274 2.94851 336.107 0.500134H337.772C337.929 2.06939 338.517 2.52822 340.067 2.52822C341.48 2.52822 342.23 1.97074 342.383 0.500134H344.058ZM364.69 5.3247V6.94687H357.742V20.9292H355.927V5.32467L364.69 5.3247ZM380.839 13.1056C380.839 22.6243 371.299 22.5431 368.276 18.9227C365.359 15.4292 365.181 5.07903 373.72 5.07903C378.524 5.07903 380.839 8.54787 380.839 13.1056ZM368.415 13.1056C368.415 16.6534 369.819 19.5735 373.688 19.5735C380.111 19.5735 379.634 11.0473 377.658 8.38766C375.789 5.87125 370.494 5.87466 368.981 9.6795C368.604 10.6331 368.415 11.7748 368.415 13.1056ZM390.99 6.70157C385.494 6.70157 384.505 12.9234 386.037 16.5317C387.558 20.1159 391.542 19.8978 394.704 18.9332V20.5127C392.375 21.3862 388.808 21.4655 386.699 20.1605C382.816 17.7586 382.497 10.6429 385.46 7.33125C387.781 4.73774 392.237 4.50454 395.28 6.00765L394.554 7.54479C393.464 7.04627 392.258 6.70157 390.99 6.70157ZM409.454 5.32469C408.322 7.84488 404.269 17.3145 403.029 19.1359C401.666 21.1375 399.173 21.5676 396.934 20.8223V19.0187C398.344 19.688 400.316 19.671 401.353 18.3996C401.652 18.0296 401.937 17.542 402.207 16.9373L396.187 5.32476H398.172C399.527 7.98479 401.615 11.8641 402.794 14.4183L403.157 15.2725H403.232C404.576 11.903 406.074 8.64431 407.522 5.32476L409.454 5.32469ZM421.996 5.32469V19.3066H423.917V25.0065H422.177V20.9292H411.333V25.0065H409.593V19.3066H410.789C413.1 15.3616 414.623 9.89184 414.876 5.32469H421.996ZM420.192 6.95744H416.477C416.199 10.7914 414.641 15.9705 412.71 19.3067H420.192V6.95744ZM436.351 20.9292L434.43 15.9769H428.175L426.265 20.9292H424.429L430.534 5.26044H432.167L438.23 20.9292H436.351ZM433.886 14.3649L431.313 7.1498C430.702 9.6594 429.687 11.9725 428.784 14.3649H433.886ZM444.473 5.32465C447.894 5.32465 450.28 6.46266 450.28 9.88199C450.28 13.4529 447.438 14.792 444.111 14.792H442.211V20.9292H440.396V5.32462L444.473 5.32465ZM444.303 6.87236H442.211V13.2337C444.909 13.2337 448.401 13.5084 448.401 9.95683C448.401 7.53642 446.677 6.87236 444.303 6.87236ZM460.217 6.70152C454.722 6.70152 453.733 12.9234 455.265 16.5317C456.786 20.1162 460.77 19.8974 463.931 18.9332V20.5127C461.603 21.3857 458.035 21.4655 455.926 20.1604C452.044 17.7585 451.724 10.6424 454.688 7.3312C457.009 4.73807 461.464 4.50449 464.508 6.00761L463.782 7.54474C462.691 7.04622 461.485 6.70152 460.217 6.70152ZM472.107 20.9291H470.282V6.92562H465.372V5.32461H476.995V6.92562H472.107V20.9291ZM479.354 5.32459C481.929 5.32459 486.164 5.00749 488.171 6.19955C490.485 7.57492 490.275 11.9705 486.655 12.6463V12.7532C488.733 13.0779 490.156 14.2647 490.156 16.4889C490.156 19.5983 487.597 20.9291 484.723 20.9291H479.354V5.32459ZM481.169 12.0166C484.184 12.0166 487.765 12.6055 487.765 9.38039C487.765 6.29933 483.678 6.8723 481.169 6.8723V12.0166ZM481.169 13.5432V19.3814C484.264 19.3814 488.224 20.016 488.224 16.3608C488.224 12.932 484 13.5432 481.169 13.5432ZM502.174 20.9291H493.486V5.32456H502.174V6.92557H495.3V11.9739H501.779V13.5537H495.3V19.3281H502.174V20.9291ZM517.458 20.9291H515.644V13.5753H507.447V20.9291H505.632V5.32456H507.447V11.9739H515.644V5.32456H517.458V20.9291ZM533.575 20.9291H531.761V13.5753H523.564V20.9291H521.749V5.32456H523.564V11.9739H531.761V5.32456H533.575V20.9291ZM537.866 20.9291V5.32456H539.68V11.9633C543.275 11.9633 547.878 11.6572 547.878 16.3713C547.878 19.5858 545.691 20.9291 542.424 20.9291L537.866 20.9291ZM539.68 19.3814C542.297 19.3814 545.999 19.8474 545.999 16.3714C545.999 13.0356 542.095 13.5643 539.68 13.5643V19.3814ZM550.247 20.9291V5.32456H552.061V20.9291H550.247ZM556.438 5.32456H558.135C558.135 8.62748 558.293 14.8539 557.996 18.41H558.081L566.769 5.32456H568.765V20.9291H567.068C567.068 16.8102 566.919 12.6376 567.196 8.51603C567.218 8.19553 567.232 7.95024 567.239 7.7794H567.143L558.444 20.9291H556.438V5.32456ZM566.834 0.5C566.626 2.82592 565.095 3.76627 562.81 3.76627C560.399 3.76627 559.048 2.94838 558.882 0.5H560.547C560.704 2.06926 561.292 2.52809 562.842 2.52809C564.255 2.52809 565.005 1.97061 565.158 0.5H566.834ZM133.91 37.6618C129.938 37.6618 129.383 42.9187 130.398 45.8059C131.548 49.074 135.29 48.2913 137.891 47.3747V50.1497C134.14 51.6966 129.065 51.3255 127.335 47.1612C125.443 42.6073 126.696 34.908 133.91 34.908C135.46 34.908 137.082 35.3374 138.478 36.0075L137.411 38.6974C136.32 38.1781 135.106 37.6618 133.91 37.6618ZM155.385 42.9134C155.385 47.6873 152.953 50.9502 147.956 50.9502C142.941 50.9502 140.528 47.6828 140.528 42.8918C140.528 38.0681 142.941 34.8868 147.978 34.8868C153.004 34.8868 155.385 38.1145 155.385 42.9134ZM143.996 42.9134C143.996 45.6305 144.919 48.1752 147.956 48.1752C153.01 48.1752 152.301 41.0493 150.998 39.0496C149.618 36.9312 145.476 37.0139 144.402 40.0954C144.132 40.8781 143.996 41.8177 143.996 42.9134ZM173.295 48.1114V55.2838H170.103V50.7366H158.619V35.1321H161.928V47.9829H167.67V35.1321H170.968V48.1114L173.295 48.1114ZM175.696 35.1321H178.674C178.674 36.9667 178.833 44.6776 178.525 46.9797H178.589L185.793 35.1321H189.753V50.7366H186.807C186.807 46.8025 186.736 42.7259 187 38.7827H186.914L179.678 50.7366H175.696L175.696 35.1321ZM203.244 50.7366L202.113 47.0225H196.424L195.293 50.7366H191.728L197.235 35.0683H201.281L206.809 50.7366H203.244ZM201.323 44.2476C200.637 42.0479 199.831 39.773 199.274 37.4913C198.714 39.7858 197.932 42.0596 197.257 44.2476H201.323ZM221.133 50.7366H217.835V37.8862H214.014C213.654 40.702 213.159 46.6392 211.986 48.9973C211.069 50.8417 208.899 51.3107 206.991 50.7154V48.0044C209.441 48.8529 209.513 46.9828 210.075 43.5536L211.282 35.1321H221.133L221.133 50.7366ZM225.072 50.7366V35.1321H228.38V41.12C231.004 41.12 233.961 41.1661 235.382 43.4149C236.56 45.2786 236.144 48.1053 234.517 49.4561C232.505 51.127 227.901 50.7366 225.072 50.7366ZM228.38 48.026C230.191 48.026 232.724 48.1805 232.724 45.8591C232.724 43.6141 230.062 43.8311 228.38 43.8311V48.026ZM251.819 50.7366H248.521V44.0019H242.341V50.7366H239.032V35.1321H242.341V41.2481H248.521V35.1321H251.819V50.7366ZM269.932 42.9134C269.932 47.6869 267.501 50.9502 262.503 50.9502C257.488 50.9502 255.075 47.6828 255.075 42.8918C255.075 38.0684 257.488 34.8868 262.524 34.8868C267.55 34.8868 269.932 38.1145 269.932 42.9134ZM258.543 42.9134C258.543 45.6305 259.465 48.1752 262.503 48.1752C267.557 48.1752 266.849 41.0508 265.545 39.0496C264.165 36.9308 260.022 37.0139 258.949 40.0954C258.678 40.8781 258.543 41.8177 258.543 42.9134ZM271.853 46.2114V43.5431H277.585V46.2114H271.853ZM280.21 50.7366V35.1321H292.559V50.7366H289.262V37.8862H283.519V50.7366H280.21ZM305.485 50.7366H296.498V35.1321H305.485V37.8435H299.807V41.2696H305.09V43.9807H299.807V48.0044H305.485V50.7366ZM320.972 35.1321V47.9828H323.054V55.2837H319.862V50.7366H310.085V55.2837H306.894V47.9828H308.1C310.115 43.9546 311.311 39.7144 311.878 35.1321H320.972ZM317.674 37.8862H314.504C314.025 41.2715 312.989 44.847 311.58 47.9828H317.674V37.8862ZM335.018 50.7366L333.887 47.0225H328.198L327.067 50.7366H323.501L329.009 35.0682H333.054L338.583 50.7366H335.018ZM333.097 44.2475C332.411 42.0479 331.605 39.773 331.048 37.4913C330.487 39.7858 329.706 42.0596 329.03 44.2475H333.097ZM350.42 35.1321V37.8647H343.867V50.7366H340.558V35.1321H350.42ZM366.996 42.9134C366.996 47.6869 364.564 50.9501 359.567 50.9501C354.552 50.9501 352.138 47.6828 352.138 42.8918C352.138 38.0684 354.552 34.8868 359.588 34.8868C364.614 34.8868 366.996 38.1145 366.996 42.9134ZM355.607 42.9134C355.607 45.6301 356.529 48.1752 359.567 48.1752C364.616 48.1752 363.917 41.0572 362.609 39.0496C361.229 36.9311 357.087 37.0135 356.013 40.0954C355.742 40.8781 355.607 41.8177 355.607 42.9134ZM380.092 35.1321V37.8647H373.538V50.7366H370.23V35.1321H380.092ZM382.504 35.1321H385.482C385.482 36.9655 385.64 44.6784 385.332 46.9797H385.397L392.601 35.1321H396.561V50.7366H393.615C393.615 46.8025 393.543 42.7259 393.807 38.7827H393.722L386.485 50.7366H382.504L382.504 35.1321ZM412.486 50.7366H409.177V44.7064C406.683 45.5575 403.042 46.4412 400.926 44.6104C400.108 43.8987 399.699 42.8885 399.699 41.5792V35.1321H402.997V40.64C402.997 43.1575 405.126 43.1515 407.128 42.721C407.74 42.5857 408.423 42.3865 409.177 42.1235V35.1321H412.486V50.7366ZM425.411 50.7366H416.424V35.1321H425.411V37.8435H419.733V41.2696H425.016V43.9807H419.733V48.0044H425.411V50.7366ZM435.305 37.6618C431.334 37.6618 430.779 42.9187 431.794 45.8059C432.943 49.074 436.685 48.2913 439.287 47.3747V50.1497C435.536 51.6966 430.461 51.3255 428.73 47.1612C426.838 42.6073 428.091 34.908 435.305 34.908C436.855 34.908 438.478 35.3374 439.874 36.0075L438.806 38.6974C437.715 38.1781 436.501 37.6618 435.305 37.6618ZM455.339 50.7366H451.582L445.925 42.828V50.7366H442.617V35.1321H445.925V42.6892L451.518 35.1321H455.04L449.351 42.625L455.339 50.7366ZM457.303 35.1321H460.281C460.281 36.9667 460.439 44.6776 460.132 46.9797H460.196L467.4 35.1321H471.36V50.7366H468.414C468.414 46.8025 468.343 42.7259 468.607 38.7827H468.521L461.285 50.7366H457.303V35.1321ZM475.299 35.1321H478.276C478.276 37.0177 478.436 44.6372 478.127 46.9797H478.191L485.396 35.1321H489.355V50.7366H486.41C486.41 46.8025 486.338 42.7259 486.602 38.7827H486.516L479.28 50.7366H475.299L475.299 35.1321ZM487.872 29.9984C487.569 32.9154 485.479 33.8195 482.61 33.8195C479.624 33.8195 477.754 33.0038 477.508 29.9984H480.422C480.549 31.6009 481.132 31.9838 482.674 31.9838C484.016 31.9838 484.777 31.4293 484.926 29.9984H487.872ZM127.282 64.94H130.26C130.26 66.8256 130.42 74.4452 130.11 76.7877H130.174L137.379 64.94H141.339V80.5446H138.393C138.393 76.6105 138.321 72.5339 138.585 68.5907H138.5L131.263 80.5446H127.282L127.282 64.94ZM158.064 80.5446H154.766V73.8098H148.586V80.5446H145.277V64.94H148.586V71.0561H154.766V64.94H158.064V80.5446ZM168.641 67.4697C164.669 67.4697 164.114 72.7266 165.13 75.6134C166.279 78.882 170.021 78.0992 172.622 77.1827V79.9576C168.872 81.5046 163.797 81.1334 162.067 76.9692C160.177 72.4205 161.423 64.716 168.642 64.716C170.191 64.716 171.814 65.1453 173.209 65.8154L172.142 68.5053C171.051 67.986 169.837 67.4697 168.641 67.4697ZM181.972 80.5446H178.664V67.6938H174.426V64.94H186.21V67.6938H181.972V80.5446ZM188.611 64.94H191.589C191.589 66.7723 191.748 74.4871 191.44 76.7877H191.504L198.708 64.94H202.668V80.5446H199.722C199.722 76.6105 199.651 72.5339 199.914 68.5907H199.829L192.592 80.5446H188.611L188.611 64.94ZM212.626 80.5446H209.318V67.6938H205.08V64.94H216.864V67.6938H212.626V80.5446ZM231.796 64.94C230.662 67.5275 226.879 76.6463 225.573 78.5486C224.002 80.8363 220.874 81.1689 218.24 80.438V77.5988C219.52 78.0852 221.634 78.3755 222.467 77.0757C222.645 76.7983 222.794 76.4887 222.915 76.1471L217.515 64.9401H221.016C221.444 65.9333 224.329 72.3347 224.73 73.639H224.847C225.547 71.4518 227.551 66.944 228.38 64.9401L231.796 64.94ZM239.78 80.5446H236.471V67.6938H232.233V64.94H244.017V67.6938H239.78V80.5446ZM26.2121 55.5506L51.4582 30.3045V55.5506H26.2121ZM5.32304e-05 55.5506L26.2117 30.3106L26.2121 55.5506L26.2053 80.7971H0L26.2121 55.5506H5.32304e-05Z" fill="#1E57A3"/>
</svg>
