<svg width="365" height="52" viewBox="0 0 365 52" fill="none" xmlns="http://www.w3.org/2000/svg">
<path fill-rule="evenodd" clip-rule="evenodd" d="M33.0235 35.328C42.3513 35.328 49.9096 28.1144 49.9096 19.1266C49.9096 19.1266 49.9096 19.1267 49.9096 19.1266L66.6619 19.1266C66.6619 19.1265 66.6619 19.1267 66.6619 19.1266C66.6619 19.461 66.6566 19.7945 66.6461 20.1266C66.1072 37.2349 51.7874 51.0155 34.0235 51.5156C33.6913 51.525 33.358 51.5297 33.0235 51.5297V35.328ZM34.0235 50.5152C51.2667 50.0161 65.107 36.6515 65.6456 20.1266L50.8803 20.1265C50.3623 28.9099 43.0618 35.8239 34.0235 36.3016V50.5152ZM16.8219 2.9248H33.0234V19.1265H16.8219V2.9248ZM17.8219 18.1265H32.0234V3.9248H17.8219V18.1265Z" fill="white"/>
<path d="M170.967 41.5908L161.189 51.3677H170.967V41.5908Z" fill="white"/>
<path fill-rule="evenodd" clip-rule="evenodd" d="M161.189 51.3677H170.967V41.5908L161.189 51.3677ZM169.967 44.005L163.604 50.3677H169.967V44.005Z" fill="white"/>
<path d="M49.7709 2.92522H35.1651C43.4806 3.94586 49.9086 10.8034 49.9086 19.1269H66.6568V2.92522H49.7709ZM89.3808 13.1103H88.2163V8.39104H82.956V13.1103H81.7915V3.09621H82.956V7.36335H88.2163V3.09621H89.3808V13.1103ZM92.148 3.09621H93.2371C93.2371 5.21026 93.3384 9.21592 93.148 11.4937H93.2029L98.7785 3.09621H100.059V13.1103H98.9702C98.9702 10.467 98.8746 7.78928 99.0524 5.14431C99.066 4.93863 99.0752 4.78122 99.0798 4.67158H99.0182L93.4357 13.1103H92.148L92.148 3.09621ZM105.518 7.95929L101.601 3.09621H102.895L106.758 7.9457V3.09621H107.882V7.9457L111.745 3.09621H113.039L109.121 7.9525L113.183 13.1103H111.84L107.882 8.03472V13.1103H106.758V8.03472L102.792 13.1103H101.45L105.518 7.95929ZM122.19 13.1103H121.026V8.39102H115.765V13.1103H114.601V3.0962H115.765V7.36334H121.026V3.0962H122.19V13.1103ZM130.519 13.1103H124.944V3.0962H130.519V4.12363H126.108V7.36334H130.266V8.37719H126.108V12.0828H130.519V13.1103ZM135.814 13.1103H134.643V4.12365H131.492V3.09621H138.951V4.12365H135.814L135.814 13.1103ZM146.746 13.1103L145.513 9.93217H141.499L140.273 13.1103H139.095L143.013 3.05499H144.061L147.951 13.1103H146.746ZM145.164 8.89771L143.513 4.26748C143.12 5.87775 142.469 7.36214 141.889 8.89771H145.164ZM154.965 3.09621V4.13723H150.506V13.1103H149.342V3.09619L154.965 3.09621ZM156.657 3.09621H157.746C157.746 5.21123 157.848 9.2152 157.657 11.4937H157.712L163.287 3.09621H164.568V13.1103H163.479C163.479 10.467 163.383 7.78904 163.562 5.14431C163.575 4.93863 163.584 4.78122 163.589 4.67158H163.527L157.945 13.1103H156.657V3.09621ZM174.425 13.1103H173.261V4.12366H170.014C169.765 6.11522 169.355 10.1675 168.671 11.8978C168.189 13.1187 167.143 13.5667 165.938 13.1032V12.1238C167.532 12.8165 167.803 11.1982 168.041 9.96635C168.462 7.78828 168.757 5.3725 169.041 3.09621H174.425V13.1103ZM177.165 13.1103V3.09621H178.329V7.35656C180.642 7.35656 183.96 7.06404 183.96 10.1854C183.96 12.2531 182.468 13.1103 180.391 13.1103L177.165 13.1103ZM178.329 12.1103C180.02 12.1103 182.761 12.51 182.761 10.1854C182.761 7.9775 180.032 8.37042 178.329 8.37042V12.1103ZM190.337 3.97984C186.81 3.97984 186.175 7.97265 187.158 10.2883C188.134 12.5883 190.691 12.4484 192.72 11.8294V12.843C191.226 13.4035 188.936 13.4545 187.583 12.617C185.091 11.0756 184.887 6.50913 186.788 4.38393C188.278 2.71957 191.137 2.56991 193.09 3.53452L192.624 4.52097C191.925 4.20105 191.15 3.97984 190.337 3.97984ZM202.07 13.1103H200.659L196.056 8.02794V13.1103H194.891V3.09621H196.056V7.9457L200.542 3.09621H201.878L197.446 7.95929L202.07 13.1103ZM203.467 3.09621H204.556C204.556 5.21583 204.658 9.21155 204.467 11.4937H204.522L210.097 3.09621H211.378V13.1103H210.289C210.289 10.467 210.193 7.78927 210.371 5.1443C210.385 4.93862 210.394 4.78121 210.399 4.67158H210.337L204.755 13.1103H203.467V3.09621ZM214.125 3.09621H215.214C215.214 5.21049 215.316 9.21568 215.125 11.4937H215.18L220.755 3.09621H222.036V13.1103H220.947C220.947 10.467 220.85 7.78903 221.029 5.1443C221.043 4.93862 221.052 4.78121 221.057 4.67158H220.995L215.413 13.1103H214.125V3.09621ZM220.796 8.61866e-05C220.663 1.49273 219.681 2.09618 218.214 2.09618C216.667 2.09618 215.801 1.57131 215.693 8.61866e-05H216.762C216.863 1.00714 217.24 1.30159 218.235 1.30159C219.142 1.30159 219.623 0.943835 219.721 8.61866e-05H220.796ZM234.037 3.09621V4.13722H229.578V13.1103H228.413V3.09619L234.037 3.09621ZM244.4 8.08953C244.4 14.1981 238.278 14.1459 236.338 11.8226C234.466 9.58071 234.351 2.93855 239.831 2.93855C242.915 2.93855 244.4 5.16465 244.4 8.08953ZM236.427 8.08953C236.427 10.3663 237.328 12.2402 239.811 12.2402C243.933 12.2402 243.627 6.76861 242.359 5.06183C241.159 3.44695 237.761 3.44914 236.79 5.89086C236.548 6.50281 236.427 7.23552 236.427 8.08953ZM250.914 3.9798C247.387 3.9798 246.753 7.97262 247.736 10.2882C248.712 12.5883 251.269 12.4484 253.298 11.8294V12.843C251.803 13.4035 249.514 13.4544 248.16 12.6169C245.669 11.0755 245.464 6.50909 247.366 4.38389C248.855 2.71953 251.715 2.56988 253.667 3.53449L253.202 4.52093C252.502 4.20101 251.728 3.9798 250.914 3.9798ZM262.764 3.0962C262.037 4.71351 259.436 10.7905 258.64 11.9594C257.766 13.2439 256.165 13.5199 254.729 13.0416V11.8842C255.634 12.3138 256.899 12.3028 257.565 11.4869C257.757 11.2495 257.939 10.9366 258.113 10.5485L254.25 3.09625H255.524C256.393 4.8033 257.733 7.2928 258.489 8.93194L258.722 9.48009H258.77C259.633 7.31779 260.595 5.22654 261.524 3.09624L262.764 3.0962ZM270.812 3.0962V12.069H272.045V15.7268H270.928V13.1102H263.969V15.7268H262.853V12.069H263.62C265.104 9.53727 266.08 6.02713 266.243 3.0962H270.812ZM269.654 4.144H267.271C267.092 6.60441 266.092 9.92803 264.853 12.069H269.654V4.144ZM280.024 13.1102L278.792 9.93215H274.778L273.552 13.1102H272.374L276.291 3.05497H277.339L281.23 13.1102H280.024ZM278.442 8.89768L276.791 4.26745C276.399 5.87796 275.748 7.36236 275.168 8.89768H278.442ZM285.237 3.09617C287.432 3.09617 288.963 3.82648 288.963 6.02081C288.963 8.3124 287.139 9.17174 285.004 9.17174H283.785V13.1102H282.62V3.09616L285.237 3.09617ZM285.127 4.0894H283.785V8.17172C285.516 8.17172 287.758 8.34805 287.758 6.06883C287.758 4.51556 286.651 4.0894 285.127 4.0894ZM295.34 3.97977C291.813 3.97977 291.179 7.97259 292.162 10.2882C293.139 12.5885 295.695 12.4481 297.724 11.8293V12.8429C296.23 13.4032 293.94 13.4544 292.586 12.6169C290.095 11.0755 289.89 6.50882 291.792 4.38386C293.282 2.71974 296.141 2.56985 298.094 3.53446L297.628 4.5209C296.928 4.20098 296.154 3.97977 295.34 3.97977ZM302.97 13.1102H301.799V4.12358H298.648V3.09615H306.108V4.12358H302.97V13.1102ZM307.621 3.09614C309.274 3.09614 311.991 2.89264 313.279 3.65764C314.765 4.54027 314.629 7.3611 312.306 7.79476V7.86341C313.64 8.07175 314.553 8.83335 314.553 10.2607C314.553 12.2562 312.911 13.1102 311.067 13.1102H307.621V3.09614ZM308.786 7.39068C310.721 7.39068 313.019 7.76857 313.019 5.69891C313.019 3.72167 310.396 4.08937 308.786 4.08937V7.39068ZM308.786 8.37033V12.117C310.772 12.117 313.313 12.5242 313.313 10.1785C313.313 7.97813 310.602 8.37033 308.786 8.37033ZM322.266 13.1102H316.69V3.09612H322.266V4.12355H317.855V7.36326H322.012V8.37711H317.855V12.0828H322.266V13.1102ZM332.074 13.1102H330.91V8.39094H325.649V13.1102H324.485V3.09612H325.649V7.36326H330.91V3.09612H332.074V13.1102ZM342.417 13.1102H341.253V8.39094H335.992V13.1102H334.828V3.09612H335.992V7.36326H341.253V3.09612H342.417V13.1102ZM345.171 13.1102V3.09612H346.335V7.35646C348.642 7.35646 351.596 7.16 351.596 10.1853C351.596 12.2482 350.193 13.1102 348.095 13.1102L345.171 13.1102ZM346.335 12.117C348.014 12.117 350.39 12.416 350.39 10.1853C350.39 8.04459 347.885 8.38391 346.335 8.38391V12.117ZM353.116 13.1102V3.09612H354.28V13.1102H353.116ZM357.089 3.09612H358.178C358.178 5.21574 358.28 9.21147 358.089 11.4936H358.144L363.719 3.09612H365V13.1102H363.911C363.911 10.4669 363.815 7.78918 363.993 5.14422C364.007 4.93854 364.016 4.78112 364.021 4.67149H363.959L358.376 13.1102H357.089V3.09612ZM363.76 0C363.627 1.49264 362.645 2.0961 361.178 2.0961C359.631 2.0961 358.764 1.57122 358.657 0H359.726C359.826 1.00706 360.204 1.30151 361.199 1.30151C362.105 1.30151 362.587 0.943749 362.685 0H363.76ZM85.9355 23.8482C83.3868 23.8482 83.0305 27.2218 83.682 29.0746C84.4196 31.1719 86.821 30.6696 88.4905 30.0814V31.8622C86.0832 32.855 82.8265 32.6168 81.7161 29.9444C80.502 27.022 81.306 22.081 85.9355 22.081C86.9302 22.081 87.9715 22.3566 88.8672 22.7866L88.1822 24.5128C87.482 24.1796 86.7029 23.8482 85.9355 23.8482ZM99.7168 27.2184C99.7168 30.282 98.1565 32.3759 94.9495 32.3759C91.7312 32.3759 90.1823 30.2791 90.1823 27.2046C90.1823 24.109 91.7314 22.0674 94.9634 22.0674C98.1888 22.0674 99.7168 24.1388 99.7168 27.2184ZM92.4084 27.2184C92.4084 28.9621 93.0002 30.5952 94.9495 30.5952C98.1931 30.5952 97.7381 26.0222 96.9018 24.7389C96.016 23.3794 93.3577 23.4325 92.6686 25.41C92.4952 25.9123 92.4084 26.5153 92.4084 27.2184ZM111.21 30.5542V35.157H109.162V32.2389H101.792V22.2248H103.916V30.4717H107.601V22.2248H109.717V30.5542L111.21 30.5542ZM112.752 22.2248H114.663C114.663 23.4022 114.764 28.3506 114.567 29.8279H114.608L119.231 22.2248H121.772V32.2389H119.882C119.882 29.7142 119.836 27.0981 120.005 24.5676H119.951L115.307 32.2389H112.752L112.752 22.2248ZM130.43 32.2389L129.704 29.8554H126.053L125.327 32.2389H123.04L126.574 22.1839H129.17L132.718 32.2389H130.43ZM129.197 28.0746C128.757 26.663 128.24 25.2031 127.882 23.7388C127.523 25.2113 127.021 26.6705 126.588 28.0746H129.197ZM141.91 32.2389H139.794V23.9923H137.341C137.111 25.7993 136.793 29.6094 136.04 31.1227C135.452 32.3063 134.059 32.6073 132.834 32.2253V30.4855C134.407 31.03 134.453 29.8299 134.814 27.6293L135.588 22.2248H141.91L141.91 32.2389ZM144.438 32.2389V22.2248H146.561V26.0675C148.245 26.0675 150.142 26.0971 151.054 27.5403C151.81 28.7363 151.543 30.5503 150.499 31.4171C149.208 32.4894 146.253 32.2389 144.438 32.2389ZM146.561 30.4994C147.723 30.4994 149.349 30.5986 149.349 29.1088C149.349 27.6681 147.64 27.8073 146.561 27.8073V30.4994ZM161.603 32.2389H159.486V27.9169H155.52V32.2389H153.397V22.2248H155.52V26.1497H159.486V22.2248H161.603V32.2389ZM173.226 27.2184C173.226 30.2818 171.666 32.3759 168.459 32.3759C165.241 32.3759 163.692 30.2791 163.692 27.2046C163.692 24.1092 165.241 22.0674 168.473 22.0674C171.698 22.0674 173.226 24.1388 173.226 27.2184ZM165.918 27.2184C165.918 28.9621 166.51 30.5952 168.459 30.5952C171.702 30.5952 171.248 26.0231 170.411 24.7388C169.525 23.3791 166.867 23.4325 166.178 25.41C166.005 25.9123 165.918 26.5153 165.918 27.2184ZM174.459 29.3349V27.6225H178.137V29.3349H174.459ZM179.822 32.2389V22.2248H187.747V32.2389H185.631V23.9923H181.946V32.2389H179.822ZM196.042 32.2389H190.275V22.2248H196.042V23.9649H192.398V26.1635H195.789V27.9033H192.398V30.4855H196.042V32.2389ZM205.981 22.2248V30.4717H207.317V35.157H205.269V32.2389H198.994V35.157H196.946V30.4717H197.72C199.014 27.8866 199.781 25.1655 200.145 22.2248H205.981ZM203.865 23.9923H201.83C201.522 26.1648 200.858 28.4593 199.953 30.4717H203.865V23.9923ZM214.995 32.2389L214.269 29.8554H210.618L209.892 32.2389H207.604L211.139 22.1839H213.735L217.283 32.2389H214.995ZM213.762 28.0746C213.322 26.663 212.804 25.2031 212.447 23.7388C212.087 25.2113 211.586 26.6705 211.152 28.0746H213.762ZM224.879 22.2248V23.9784H220.673V32.2389H218.55V22.2248H224.879ZM235.516 27.2184C235.516 30.2818 233.956 32.3759 230.749 32.3759C227.531 32.3759 225.982 30.2791 225.982 27.2046C225.982 24.1092 227.531 22.0674 230.763 22.0674C233.988 22.0674 235.516 24.1388 235.516 27.2184ZM228.208 27.2184C228.208 28.9618 228.8 30.5951 230.749 30.5951C233.989 30.5951 233.54 26.0272 232.701 24.7388C231.815 23.3794 229.157 23.4322 228.468 25.41C228.294 25.9123 228.208 26.5153 228.208 27.2184ZM243.921 22.2248V23.9784H239.715V32.2389H237.592V22.2248H243.921ZM245.469 22.2248H247.38C247.38 23.4014 247.481 28.3511 247.284 29.8279H247.325L251.948 22.2248H254.489V32.2389H252.599C252.599 29.7142 252.553 27.0981 252.722 24.5676H252.667L248.023 32.2389H245.469L245.469 22.2248ZM264.709 32.2389H262.586V28.3691C260.985 28.9153 258.649 29.4824 257.291 28.3075C256.766 27.8507 256.503 27.2024 256.503 26.3622V22.2248H258.62V25.7595C258.62 27.3751 259.986 27.3712 261.271 27.0949C261.663 27.0081 262.102 26.8803 262.586 26.7115V22.2248H264.709V32.2389ZM273.004 32.2389H267.237V22.2248H273.004V23.9649H269.36V26.1636H272.75V27.9033H269.36V30.4855H273.004V32.2389ZM279.353 23.8482C276.805 23.8482 276.448 27.2218 277.1 29.0746C277.837 31.1719 280.239 30.6696 281.908 30.0814V31.8622C279.501 32.855 276.244 32.6168 275.134 29.9444C273.92 27.022 274.724 22.081 279.353 22.081C280.348 22.081 281.389 22.3566 282.285 22.7866L281.6 24.5128C280.9 24.1796 280.121 23.8482 279.353 23.8482ZM292.21 32.2389H289.799L286.169 27.1636V32.2389H284.045V22.2248H286.169V27.0746L289.758 22.2248H292.018L288.367 27.0333L292.21 32.2389ZM293.47 22.2248H295.381C295.381 23.4022 295.483 28.3506 295.285 29.8279H295.326L299.95 22.2248H302.491V32.2389H300.601C300.601 29.7142 300.555 27.0981 300.724 24.5676H300.669L296.025 32.2389H293.47V22.2248ZM305.019 22.2248H306.93C306.93 23.4349 307.032 28.3247 306.834 29.8279H306.875L311.498 22.2248H314.039V32.2389H312.149C312.149 29.7142 312.103 27.0981 312.272 24.5676H312.217L307.574 32.2389H305.019L305.019 22.2248ZM313.087 18.9303C312.893 20.8023 311.552 21.3825 309.71 21.3825C307.794 21.3825 306.594 20.8591 306.437 18.9303H308.306C308.388 19.9587 308.762 20.2044 309.752 20.2044C310.613 20.2044 311.101 19.8486 311.197 18.9303H313.087ZM81.6819 41.3538H83.593C83.593 42.5639 83.6956 47.4536 83.4972 48.9569H83.5382L88.1616 41.3538H90.703V51.3679H88.8123C88.8123 48.8432 88.7665 46.2271 88.9358 43.6966H88.881L84.2369 51.3679H81.6819L81.6819 41.3538ZM101.436 51.3679H99.3195V47.0459H95.3539V51.3679H93.2304V41.3538H95.3539V45.2787H99.3195V41.3538H101.436V51.3679ZM108.224 42.9772C105.675 42.9772 105.319 46.3508 105.971 48.2034C106.708 50.3009 109.109 49.7986 110.779 49.2104V50.9912C108.372 51.984 105.115 51.7458 104.005 49.0734C102.792 46.1543 103.592 41.21 108.224 41.21C109.219 41.21 110.26 41.4856 111.156 41.9156L110.471 43.6418C109.77 43.3086 108.991 42.9772 108.224 42.9772ZM116.779 51.3679H114.656V43.121H111.937V41.3538H119.498V43.121H116.779V51.3679ZM121.04 41.3538H122.951C122.951 42.5297 123.052 47.4806 122.855 48.9569H122.896L127.519 41.3538H130.06V51.3679H128.17C128.17 48.8432 128.124 46.2271 128.293 43.6966H128.238L123.594 51.3679H121.04L121.04 41.3538ZM136.451 51.3679H134.328V43.121H131.608V41.3538H139.17V43.121H136.451V51.3679ZM148.753 41.3538C148.025 43.0143 145.598 48.8662 144.76 50.087C143.752 51.5551 141.744 51.7686 140.054 51.2995V49.4775C140.875 49.7896 142.232 49.9759 142.766 49.1418C142.881 48.9637 142.976 48.7651 143.054 48.5458L139.588 41.3538H141.835C142.11 41.9912 143.961 46.0993 144.218 46.9363H144.294C144.743 45.5327 146.029 42.6398 146.561 41.3538L148.753 41.3538ZM153.876 51.3679H151.753V43.121H149.034V41.3538H156.596V43.121H153.876V51.3679ZM16.8214 35.3282L33.0229 19.1268V35.3282H16.8214ZM3.41601e-05 35.3282L16.8211 19.1307L16.8214 35.3282L16.817 51.5299H0L16.8214 35.3282H3.41601e-05Z" fill="white"/>
</svg>
